<?xml version="1.0" encoding="utf-8"?>
<!-- Generator: Adobe Illustrator 25.0.0, SVG Export Plug-In . SVG Version: 6.00 Build 0)  -->
<svg version="1.1" id="Capa_1" xmlns="http://www.w3.org/2000/svg" xmlns:xlink="http://www.w3.org/1999/xlink" x="0px" y="0px"
	 viewBox="0 0 64 64" fill="#fff" style="enable-background:new 0 0 64 64;" xml:space="preserve">
<style type="text/css">
	.st0{fill:#fff;}
	.st1{fill:#fff;}
	.st2{fill:#fff;}
</style>
<g>
	<path d="M12.78,20.96c0.11-4.64,1.63-8.75,4.67-12.27c2.86-3.32,6.46-5.43,10.76-6.29c4.17-0.84,8.21-0.37,12.04,1.47
		c5,2.42,8.37,6.31,10.1,11.61c0.69,2.11,0.97,4.27,0.86,6.48c-0.1,1.8-0.6,3.52-1.19,5.21c-1.43,4.11-3.36,7.98-5.43,11.8
		c-2.28,4.21-4.78,8.3-7.35,12.34c-1.53,2.4-3.15,4.75-4.73,7.12c-0.06,0.08-0.13,0.15-0.19,0.24c-0.2,0.31-0.39,0.33-0.61,0.01
		c-0.47-0.68-0.95-1.35-1.41-2.04c-1.83-2.71-3.63-5.45-5.35-8.23c-2.44-3.94-4.79-7.94-6.91-12.07c-1.36-2.64-2.63-5.32-3.66-8.11
		C13.51,25.89,12.73,23.52,12.78,20.96z M32.02,8.54c-6.86-0.01-12.5,5.61-12.5,12.46c-0.01,6.86,5.6,12.51,12.44,12.52
		c6.88,0.01,12.52-5.6,12.53-12.48C44.5,14.19,38.87,8.55,32.02,8.54z"/>
	<path d="M32.24,62c-3.5-0.11-6.73-0.31-9.89-1.12c-1.65-0.43-3.28-0.94-4.73-1.89c-0.81-0.52-1.51-1.15-1.85-2.08
		c-0.42-1.15-0.07-2.32,0.96-3.23c1.17-1.04,2.58-1.64,4.05-2.11c0.72-0.23,1.46-0.4,2.19-0.6c0.38-0.1,0.59,0,0.56,0.44
		c0,0.02,0,0.03,0,0.05c0.02,0.91,0.03,0.92-0.84,1.16c-1.5,0.41-2.97,0.88-4.3,1.73c-1.6,1.02-1.66,2.17-0.09,3.25
		c1.28,0.89,2.74,1.36,4.23,1.75c2.51,0.64,5.07,0.91,7.65,1.04c3.37,0.17,6.71-0.1,10.01-0.75c1.76-0.35,3.47-0.85,5.04-1.76
		c0.44-0.25,0.86-0.53,1.18-0.93c0.59-0.74,0.55-1.4-0.15-2.05c-1-0.93-2.24-1.42-3.51-1.84c-0.61-0.2-1.22-0.38-1.85-0.53
		c-0.35-0.08-0.46-0.26-0.47-0.6c-0.03-1.09-0.02-1.09,1.04-0.83c1.56,0.39,3.08,0.89,4.49,1.67c0.7,0.39,1.32,0.87,1.81,1.52
		c0.85,1.13,0.77,2.61-0.19,3.66c-1.13,1.24-2.62,1.89-4.16,2.4c-2.69,0.89-5.46,1.35-8.28,1.49C34.1,61.88,33.04,61.95,32.24,62z"
		/>
</g>
</svg>
