<?xml version="1.0" encoding="utf-8"?>
<!-- Generator: Adobe Illustrator 25.0.0, SVG Export Plug-In . SVG Version: 6.00 Build 0)  -->
<svg version="1.1" id="Capa_1" xmlns="http://www.w3.org/2000/svg" xmlns:xlink="http://www.w3.org/1999/xlink" x="0px" y="0px"
	 viewBox="0 0 64 64" style="enable-background:new 0 0 64 64;" xml:space="preserve">
<style type="text/css">
	.st0{fill:#fff;}
	.st1{fill:#fff;}
	.st2{fill:#fff;}
</style>
<g>
	<path class="st2" d="M28.79,32.64c-7.99,0-15.97,0-23.96,0c-0.37,0-0.75,0-1.12-0.01C2.7,32.6,1.98,32.19,2,31.09
		c0.02-1.03,0.72-1.42,1.67-1.45c0.42-0.01,0.83-0.01,1.25-0.01c15.68,0,31.36,0,47.04,0c0.58,0,1.17,0.02,1.75-0.02
		c2.52-0.16,4.35-1.55,5.04-3.8c0.78-2.54,0.03-5.81-1.76-7.13c-1.87-1.37-3.91-1.32-5.9-0.29c-1.7,0.88-2.51,2.38-2.36,4.32
		c0.18,2.32,2.81,3.6,4.79,2.36c0.56-0.35,0.71-0.89,0.82-1.47c0.18-1.01,0.74-1.63,1.81-1.4c1.07,0.23,1.27,1.06,1.13,2.04
		c-0.29,2.02-1.44,3.33-3.36,3.93c-4.83,1.53-9.05-2.24-8.09-7.21c1.04-5.42,7.9-8.18,12.55-4.98c3.17,2.18,3.88,5.47,3.56,9.05
		c-0.28,3.15-1.92,5.44-4.81,6.78c-1.42,0.66-2.95,0.83-4.5,0.83C44.67,32.63,36.73,32.64,28.79,32.64z"/>
	<path class="st2" d="M25.96,25.84c-3.35,0.65-6.7,1.3-10.04,1.94c-0.41,0.08-0.83,0.18-1.23,0.15c-0.74-0.04-1.27-0.46-1.4-1.2
		c-0.13-0.74,0.23-1.31,0.91-1.6c0.42-0.17,0.88-0.24,1.33-0.32c6.41-1.24,12.82-2.49,19.23-3.72c0.95-0.18,1.87-0.42,2.71-0.89
		c2.84-1.56,3.57-5.25,1.69-8.55c-1.55-2.73-4.46-3.45-7.29-1.8c-1.91,1.11-2.76,3.18-2.16,5.22c0.66,2.22,3.52,2.94,5.18,1.32
		c0.46-0.45,0.55-1,0.51-1.6c-0.06-0.99,0.38-1.64,1.4-1.68c1.03-0.04,1.47,0.65,1.56,1.58c0.21,2.03-0.61,3.57-2.35,4.6
		c-2.29,1.36-5.12,1.3-7.06-0.24c-2.23-1.76-2.81-4.17-2.25-6.84c0.73-3.46,4.02-6.05,7.69-6.21c3.85-0.17,6.9,2.04,8.13,5.89
		c1.98,6.16-0.81,10.89-7.15,12.13C32.25,24.63,29.11,25.24,25.96,25.84z"/>
	<path class="st2" d="M31.37,38.71c2.28,0.45,4.58,0.86,6.85,1.37c3.62,0.81,6.27,2.81,6.95,6.61c0.72,4.04-0.51,7.53-3.85,10.02
		c-2.53,1.89-6.44,1.64-9.26-0.34c-2.7-1.9-3.88-4.93-3.09-8.08c0.57-2.29,1.99-3.87,4.3-4.39c2.33-0.53,4.47,0.07,6.19,1.77
		c1.05,1.04,1.31,2.39,1.08,3.81c-0.14,0.88-0.67,1.45-1.63,1.37c-0.88-0.08-1.27-0.64-1.33-1.52c-0.11-1.8-0.75-2.4-2.63-2.59
		c-1.4-0.14-2.6,0.68-3.03,2.06c-0.62,1.99,0.17,4.07,1.97,5.19c2.17,1.35,4.74,1.33,6.25-0.19c1.94-1.93,2.65-4.32,1.98-6.98
		c-0.59-2.32-2.39-3.41-4.61-3.86c-4.44-0.91-8.89-1.77-13.33-2.66c-0.37-0.07-0.73-0.14-1.1-0.22c-0.99-0.22-1.6-0.77-1.35-1.85
		c0.23-1.01,1-1.25,1.93-1.07C26.23,37.69,28.8,38.21,31.37,38.71z"/>
	<path class="st2" d="M16.79,38.86c-0.69-0.14-1.39-0.24-2.07-0.42c-0.89-0.23-1.35-0.84-1.16-1.76c0.18-0.87,0.82-1.26,1.67-1.13
		c1.43,0.23,2.86,0.51,4.28,0.84c0.88,0.21,1.37,0.84,1.17,1.76c-0.2,0.91-0.9,1.25-1.81,1.11C18.17,39.16,17.48,38.99,16.79,38.86z
		"/>
	<path class="st2" d="M9.09,37.31c-0.45-0.09-0.91-0.13-1.34-0.28C7,36.77,6.63,36.21,6.77,35.4c0.14-0.81,0.69-1.28,1.48-1.2
		c0.98,0.1,1.97,0.3,2.92,0.57c0.75,0.22,1.16,0.82,1.01,1.63c-0.16,0.87-0.78,1.25-1.63,1.19C10.06,37.56,9.58,37.41,9.09,37.31z"
		/>
</g>
</svg>
